<?xml version="1.0" encoding="UTF-8" standalone="no"?>
<svg xmlns:rdf="http://www.w3.org/1999/02/22-rdf-syntax-ns#" xmlns="http://www.w3.org/2000/svg" height="15.172166mm" width="39.335285mm" version="1.1" xmlns:cc="http://creativecommons.org/ns#" xmlns:dc="http://purl.org/dc/elements/1.1/" viewBox="0 0 139.37699 53.759643">
 <g transform="translate(-214.70294,-180.48238)">
  <g transform="matrix(.55581608 0 0 -.55581608 277.01215 200.19217)">
   <path d="m0 0v4.324h-1.272l-4.859-6.428 1.491-1.49c0.351 0.456 0.795 0.919 1.195 1.301 0.996 0.95 2.164 1.776 3.445 2.293zm33.919 4.324h-23.434v-3.752h1.893v-21.544c1.384-0.995 3.242-0.901 4.816-0.71v-5.342h-4.817c-0.027-2.582-0.909-4.95-3.436-6.007-0.903-0.377-2.181-0.596-3.205-0.509v-2.58h21.175v2.58c-1.034-0.087-2.325 0.131-3.239 0.509-2.582 1.069-3.471 3.485-3.471 6.132v27.471h9.609c2.059 0 3.94-0.922 5.5-2.209 0.668-0.551 1.437-1.304 1.981-2.027l1.553 1.494-4.925 6.494zm-11.048 10.426h-35.19l-4.86-6.429 1.492-1.489c0.544 0.711 1.312 1.45 1.978 1.991 1.566 1.272 3.446 2.174 5.498 2.174h9.542v-27.471c0-2.63-0.869-5.058-3.437-6.131-0.903-0.378-2.181-0.597-3.205-0.51v-2.58h21.175v2.58c-1.035-0.087-2.326 0.132-3.239 0.51-2.583 1.068-3.471 3.484-3.471 6.131v27.471h9.609c2.059 0 3.94-0.922 5.5-2.209 0.668-0.551 1.437-1.304 1.98-2.026l1.554 1.494-4.926 6.494zm-1.339-21.3c4.91-0.681 10.651-2.38 13.753-6.496l1.952 1.089-5.732 6.306c-0.145-0.144-0.32-0.281-0.47-0.384-0.505-0.344-1.085-0.54-1.699-0.54-0.994 0-2.246 0.284-3.179 0.619-1.525 0.516-3.064 0.987-4.625 1.381v-1.975zm2.062-24.954c5.124 1.451 9.583 4.16 13.4 7.854l-1.629 1.57c-3.876-3.529-8.402-5.981-13.578-6.916 0.332-1.062 0.844-1.915 1.807-2.508zm-12.358 28.364c-0.252-0.003-0.502-0.007-0.751-0.014v-3.36c0.248 0.028 0.499 0.051 0.751 0.07v3.304zm-20.7-21.498c-1.746 2.033-2.746 4.397-2.881 7.082-0.033 0.798 0.038 1.601 0.215 2.38 0.563 2.487 2.128 4.56 4.054 6.176 2.304 1.934 5.163 3.276 8.019 4.174l0.246 0.077v-5.978c-1.893-1.681-3.385-3.931-3.385-6.559 0-1.353 0.435-2.657 1.115-3.816l0.099-0.17c-1.513-0.806-2.838-0.757-4.471-0.556v-5.008l11.861-0.014c1.838-0.756 3.732-1.327 5.674-1.744-0.45-1.956-1.655-3.263-3.604-3.692-5.962 0.99-12.838 2.871-16.942 7.648zm-7.452-23.806h-68.234l-26.954 35.396h75.134l-14.386 25.772h14.507l-8.713 22.737h117.676l-8.713-22.737h14.508l-14.386-25.772h75.134l-26.954-35.396h-68.234c-7.396-8.574-19.169-12.818-30.193-12.817-11.024 0-22.795 4.242-30.192 12.817zm30.192-9.751c10.653 0 22.003 4.248 28.743 12.816h68.166l22.285 29.266h-74.169l14.387 25.772h-13.744l8.713 22.737h-108.761l8.713-22.737h-13.744l14.387-25.772h-74.169l22.285-29.266h68.166c6.74-8.568 18.09-12.816 28.742-12.816zm42.543 37.636-11.381-20.374h63.465l15.563 20.374h-67.647zm-84.956 0 11.381-20.374h-63.465l-15.563 20.374h67.647zm-5.816 48.915 24.654-63.892c4.766-12.351 14.21-18.337 23.64-18.314 9.43-0.023 18.875 5.963 23.64 18.314l24.654 63.892h-96.588" fill-rule="evenodd" fill="#e4002b"/>
  </g>
 </g>
</svg>
