<?xml version="1.0" encoding="iso-8859-1"?>
<!-- Generator: Adobe Illustrator 18.0.0, SVG Export Plug-In . SVG Version: 6.00 Build 0)  -->
<!DOCTYPE svg PUBLIC "-//W3C//DTD SVG 1.1//EN" "http://www.w3.org/Graphics/SVG/1.1/DTD/svg11.dtd">
<svg version="1.1" id="Capa_1" xmlns="http://www.w3.org/2000/svg" xmlns:xlink="http://www.w3.org/1999/xlink" x="0px" y="0px"
	 viewBox="0 0 490.227 490.227" style="enable-background:new 0 0 490.227 490.227;" xml:space="preserve">
<g>
	<path d="M344.18,231.326H146.047c-4.517,0-8.17,3.654-8.17,8.17v47.284c0,4.515,3.654,8.17,8.17,8.17H344.18
		c4.517,0,8.171-3.656,8.171-8.17v-47.284C352.351,234.979,348.697,231.326,344.18,231.326z M154.217,247.666h49.022v30.943h-49.022
		V247.666z M221.623,247.666h46.98v30.943h-46.98V247.666z M336.009,278.61h-49.023v-30.943h49.023V278.61z"/>
	<path d="M470.16,411.075h-68.269c8.067-2.314,14.084-9.439,14.084-18.24v-6.575h13.085c19.653,0,35.634-15.981,35.634-35.633
		V201.333h9.192c9.023,0,16.341-7.317,16.341-16.341c0-9.025-7.317-16.341-16.341-16.341h-9.192H318.863
		c8.107-0.966,14.482-7.605,14.482-15.967c0-9.023-7.316-16.341-16.341-16.341h-48.846l26.139-26.131
		c1.531-1.533,2.394-3.606,2.394-5.776c0-2.164-0.863-4.245-2.394-5.778L258.454,62.81h58.549c4.517,0,8.17-3.654,8.17-8.17
		s-3.654-8.17-8.17-8.17h-143.78c-4.517,0-8.17,3.654-8.17,8.17s3.654,8.17,8.17,8.17h58.549l-35.842,35.849
		c-1.531,1.533-2.393,3.615-2.393,5.778c0,2.17,0.861,4.244,2.393,5.776l26.139,26.131h-48.846c-9.025,0-16.341,7.317-16.341,16.341
		c0,8.362,6.375,15.001,14.482,15.967H25.533h-9.192C7.317,168.652,0,175.968,0,184.993c0,9.023,7.317,16.341,16.341,16.341h9.192
		v149.293c0,19.652,15.981,35.633,35.635,35.633h13.084v6.575c0,8.801,6.017,15.926,14.084,18.24H20.067
		c-9.023,0-16.341,7.318-16.341,16.341c0,9.023,7.318,16.341,16.341,16.341H470.16c9.023,0,16.341-7.318,16.341-16.341
		C486.501,418.393,479.184,411.075,470.16,411.075z M245.113,72.577l31.852,31.86l-31.852,31.844l-31.852-31.844L245.113,72.577z
		 M381.035,411.075h-44.508c8.067-2.314,14.084-9.439,14.084-18.24v-6.575h16.341v6.575
		C366.953,401.637,372.968,408.762,381.035,411.075z M89.875,353.578V201.333h16.341v152.245H89.875z M122.557,353.578V201.333
		H367.67v152.245H122.557z M384.011,353.578V201.333h16.341v152.245H384.011z M188.638,392.835v-6.575h112.951v6.575
		c0,8.801,6.015,15.926,14.082,18.24H174.555C182.623,408.762,188.638,401.637,188.638,392.835z M432.012,350.627
		c0,1.628-1.325,2.951-2.953,2.951h-12.367V201.333h15.319V350.627z M58.214,350.627V201.333h15.32v152.245H61.167
		C59.54,353.578,58.214,352.255,58.214,350.627z M123.274,392.835v-6.575h16.341v6.575c0,8.801,6.017,15.926,14.084,18.24h-44.508
		C117.259,408.762,123.274,401.637,123.274,392.835z"/>
</g>
<g>
</g>
<g>
</g>
<g>
</g>
<g>
</g>
<g>
</g>
<g>
</g>
<g>
</g>
<g>
</g>
<g>
</g>
<g>
</g>
<g>
</g>
<g>
</g>
<g>
</g>
<g>
</g>
<g>
</g>
</svg>
